<?xml version="1.0"?>
<svg xmlns="http://www.w3.org/2000/svg" xmlns:xlink="http://www.w3.org/1999/xlink" xmlns:svgjs="http://svgjs.com/svgjs" version="1.1" width="512" height="512" x="0" y="0" viewBox="0 0 512.119 512.119" style="enable-background:new 0 0 512 512" xml:space="preserve"><g><g xmlns="http://www.w3.org/2000/svg"><path d="m157.791 122.848-14.791-20.71-14.79 20.71-24.231 7.563 15.129 20.285-.262 25.344 24.154-8.088 24.155 8.088-.262-25.344 15.128-20.285z" fill="#fbc916" stroke="#000000" data-original="#000000" style=""/><path d="m441.381 180.285v-180.225h-441.381v290.936h165.905v94.689l101.241-94.689h59.808l99.38-99.379c4.528-4.528 9.596-8.315 15.047-11.332zm-243.947 37.367-54.434-18.226-54.433 18.227.593-57.19-34.296-45.986 54.886-17.131 33.25-46.563 33.251 46.562 54.886 17.131-34.297 45.986zm165.072-.909h-105.516v-29.845h105.516zm0-59.142h-105.516v-29.845h105.516zm0-59.694h-105.516v-29.845h105.516z" stroke="#000000" fill="#fbc916" data-original="#000000" style=""/><path d="m212.191 446.771-11.308 65.289 65.031-11.263-53.6-54.149z" fill="#fbc916" stroke="#000000" data-original="#000000" style=""/><path d="m500.82 266.104c14.906-14.906 14.906-39.074 0-53.98-14.906-14.906-39.074-14.906-53.981 0l-26.552 26.552 53.983 53.985-21.103 21.101 16.745 16.745-56.517 56.517 21.103 21.103 77.62-77.62-37.848-37.846z" fill="#fbc916" stroke="#000000"  data-original="#000000" style=""/><path d="m287.123 479.801 166.044-166.04-53.982-53.983-165.768 165.767z" fill="#fbc916" stroke="#000000" data-original="#000000" style=""/></g></g></svg>
